<svg xmlns="http://www.w3.org/2000/svg" viewBox="0 0 24 24" fill="#3B82F6">
  <path d="M6.5 2h11c1.1 0 2 .9 2 2v16c0 1.1-.9 2-2 2h-11c-1.1 0-2-.9-2-2V4c0-1.1.9-2 2-2zm0 2v16h11V4h-11zm8 11c0-.55-.45-1-1-1s-1 .45-1 1 .45 1 1 1 1-.45 1-1z"/>
  <!-- NFC waves -->
  <path d="M2 8c0-.55-.45-1-1-1s-1 .45-1 1c0 2.76 2.24 5 5 5s5-2.24 5-5c0-.55-.45-1-1-1s-1 .45-1 1c0 1.66-1.34 3-3 3S2 9.66 2 8z" opacity="0.7"/>
  <path d="M2 12c0-.55-.45-1-1-1s-1 .45-1 1c0 4.42 3.58 8 8 8s8-3.58 8-8c0-.55-.45-1-1-1s-1 .45-1 1c0 3.31-2.69 6-6 6s-6-2.69-6-6z" opacity="0.5"/>
</svg>